<?xml version="1.0" encoding="UTF-8" standalone="no"?>
<!DOCTYPE svg PUBLIC "-//W3C//DTD SVG 1.1//EN"
 "http://www.w3.org/Graphics/SVG/1.1/DTD/svg11.dtd">
<!-- Generated by graphviz version 2.38.0 (20140413.2041)
 -->
<!-- Title: G Pages: 1 -->
<svg width="1196pt" height="1366pt"
 viewBox="0.00 0.00 1195.57 1366.00" xmlns="http://www.w3.org/2000/svg" xmlns:xlink="http://www.w3.org/1999/xlink">
<g id="graph0" class="graph" transform="scale(1 1) rotate(0) translate(4 1362)">
<title>G</title>
<polygon fill="white" stroke="none" points="-4,4 -4,-1362 1191.57,-1362 1191.57,4 -4,4"/>
<g id="clust1" class="cluster"><title>cluster_Global</title>
<path fill="none" stroke="gray" d="M150.38,-152C150.38,-152 1167.57,-152 1167.57,-152 1173.57,-152 1179.57,-158 1179.57,-164 1179.57,-164 1179.57,-1338 1179.57,-1338 1179.57,-1344 1173.57,-1350 1167.57,-1350 1167.57,-1350 150.38,-1350 150.38,-1350 144.38,-1350 138.38,-1344 138.38,-1338 138.38,-1338 138.38,-164 138.38,-164 138.38,-158 144.38,-152 150.38,-152"/>
<text text-anchor="middle" x="658.973" y="-1337.2" font-family="Times,serif" font-size="11.00" fill="gray">Global</text>
</g>
<g id="clust2" class="cluster"><title>cluster_\Cloudflare</title>
<path fill="none" stroke="gray" d="M158.38,-160C158.38,-160 1159.57,-160 1159.57,-160 1165.57,-160 1171.57,-166 1171.57,-172 1171.57,-172 1171.57,-1311 1171.57,-1311 1171.57,-1317 1165.57,-1323 1159.57,-1323 1159.57,-1323 158.38,-1323 158.38,-1323 152.38,-1323 146.38,-1317 146.38,-1311 146.38,-1311 146.38,-172 146.38,-172 146.38,-166 152.38,-160 158.38,-160"/>
<text text-anchor="middle" x="658.973" y="-1310.2" font-family="Times,serif" font-size="11.00" fill="gray">Cloudflare</text>
</g>
<g id="clust3" class="cluster"><title>cluster_\Cloudflare\Zone</title>
<path fill="none" stroke="gray" d="M821.465,-168C821.465,-168 902.077,-168 902.077,-168 908.077,-168 914.077,-174 914.077,-180 914.077,-180 914.077,-929 914.077,-929 914.077,-935 908.077,-941 902.077,-941 902.077,-941 821.465,-941 821.465,-941 815.465,-941 809.465,-935 809.465,-929 809.465,-929 809.465,-180 809.465,-180 809.465,-174 815.465,-168 821.465,-168"/>
<text text-anchor="middle" x="861.771" y="-928.2" font-family="Times,serif" font-size="11.00" fill="gray">Zone</text>
</g>
<g id="clust4" class="cluster"><title>cluster_\Cloudflare\User</title>
<path fill="none" stroke="gray" d="M834.667,-949C834.667,-949 1151.57,-949 1151.57,-949 1157.57,-949 1163.57,-955 1163.57,-961 1163.57,-961 1163.57,-1284 1163.57,-1284 1163.57,-1290 1157.57,-1296 1151.57,-1296 1151.57,-1296 834.667,-1296 834.667,-1296 828.667,-1296 822.667,-1290 822.667,-1284 822.667,-1284 822.667,-961 822.667,-961 822.667,-955 828.667,-949 834.667,-949"/>
<text text-anchor="middle" x="993.117" y="-1283.2" font-family="Times,serif" font-size="11.00" fill="gray">User</text>
</g>
<g id="clust5" class="cluster"><title>cluster_\Cloudflare\User\Billing</title>
<path fill="none" stroke="gray" d="M1070.66,-1109C1070.66,-1109 1137.66,-1109 1137.66,-1109 1143.66,-1109 1149.66,-1115 1149.66,-1121 1149.66,-1121 1149.66,-1257 1149.66,-1257 1149.66,-1263 1143.66,-1269 1137.66,-1269 1137.66,-1269 1070.66,-1269 1070.66,-1269 1064.66,-1269 1058.66,-1263 1058.66,-1257 1058.66,-1257 1058.66,-1121 1058.66,-1121 1058.66,-1115 1064.66,-1109 1070.66,-1109"/>
<text text-anchor="middle" x="1104.16" y="-1256.2" font-family="Times,serif" font-size="11.00" fill="gray">Billing</text>
</g>
<g id="clust6" class="cluster"><title>cluster_\Cloudflare\User\Billing\Subscriptions</title>
<path fill="none" stroke="gray" d="M1078.66,-1117C1078.66,-1117 1129.66,-1117 1129.66,-1117 1135.66,-1117 1141.66,-1123 1141.66,-1129 1141.66,-1129 1141.66,-1230 1141.66,-1230 1141.66,-1236 1135.66,-1242 1129.66,-1242 1129.66,-1242 1078.66,-1242 1078.66,-1242 1072.66,-1242 1066.66,-1236 1066.66,-1230 1066.66,-1230 1066.66,-1129 1066.66,-1129 1066.66,-1123 1072.66,-1117 1078.66,-1117"/>
<text text-anchor="middle" x="1104.16" y="-1229.2" font-family="Times,serif" font-size="11.00" fill="gray">Subscriptions</text>
</g>
<g id="clust7" class="cluster"><title>cluster_\Cloudflare\Organizations</title>
<path fill="none" stroke="gray" d="M514.868,-168C514.868,-168 608.682,-168 608.682,-168 614.682,-168 620.682,-174 620.682,-180 620.682,-180 620.682,-443 620.682,-443 620.682,-449 614.682,-455 608.682,-455 608.682,-455 514.868,-455 514.868,-455 508.868,-455 502.868,-449 502.868,-443 502.868,-443 502.868,-180 502.868,-180 502.868,-174 508.868,-168 514.868,-168"/>
<text text-anchor="middle" x="561.775" y="-442.2" font-family="Times,serif" font-size="11.00" fill="gray">Organizations</text>
</g>
<!-- \\Cloudflare\\Zone\\Cache -->
<g id="node1" class="node"><title>\\Cloudflare\\Zone\\Cache</title>
<polygon fill="none" stroke="black" points="888.771,-698 834.771,-698 834.771,-662 888.771,-662 888.771,-698"/>
<text text-anchor="middle" x="861.771" y="-676.7" font-family="Courier,monospace" font-size="11.00">Cache</text>
</g>
<!-- \\Cloudflare\\Zone -->
<g id="node29" class="node"><title>\\Cloudflare\\Zone</title>
<polygon fill="none" stroke="black" points="588.775,-671 534.775,-671 534.775,-635 588.775,-635 588.775,-671"/>
<text text-anchor="middle" x="561.775" y="-649.7" font-family="Courier,monospace" font-size="11.00">Zone</text>
</g>
<!-- \\Cloudflare\\Zone\\Cache&#45;&gt;\\Cloudflare\\Zone -->
<g id="edge1" class="edge"><title>\\Cloudflare\\Zone\\Cache&#45;&gt;\\Cloudflare\\Zone</title>
<path fill="none" stroke="black" d="M834.587,-677.628C781.263,-672.796 659.978,-661.807 599.081,-656.29"/>
<polygon fill="none" stroke="black" points="599.068,-652.774 588.793,-655.357 598.436,-659.746 599.068,-652.774"/>
</g>
<!-- \\Cloudflare\\Zone\\Analytics -->
<g id="node2" class="node"><title>\\Cloudflare\\Zone\\Analytics</title>
<polygon fill="none" stroke="black" points="899.682,-644 823.86,-644 823.86,-608 899.682,-608 899.682,-644"/>
<text text-anchor="middle" x="861.771" y="-622.7" font-family="Courier,monospace" font-size="11.00">Analytics</text>
</g>
<!-- \\Cloudflare\\Zone\\Analytics&#45;&gt;\\Cloudflare\\Zone -->
<g id="edge2" class="edge"><title>\\Cloudflare\\Zone\\Analytics&#45;&gt;\\Cloudflare\\Zone</title>
<path fill="none" stroke="black" d="M823.932,-629.338C766.466,-634.545 656.167,-644.538 599.05,-649.713"/>
<polygon fill="none" stroke="black" points="598.671,-646.233 589.028,-650.621 599.303,-653.205 598.671,-646.233"/>
</g>
<!-- \\Cloudflare\\Zone\\CustomPages -->
<g id="node3" class="node"><title>\\Cloudflare\\Zone\\CustomPages</title>
<polygon fill="none" stroke="black" points="905.884,-590 817.658,-590 817.658,-554 905.884,-554 905.884,-590"/>
<text text-anchor="middle" x="861.771" y="-568.7" font-family="Courier,monospace" font-size="11.00">CustomPages</text>
</g>
<!-- \\Cloudflare\\Zone\\CustomPages&#45;&gt;\\Cloudflare\\Zone -->
<g id="edge3" class="edge"><title>\\Cloudflare\\Zone\\CustomPages&#45;&gt;\\Cloudflare\\Zone</title>
<path fill="none" stroke="black" d="M817.457,-583.672C799.869,-588.418 779.357,-593.961 760.79,-599 704.163,-614.367 638.457,-632.307 598.781,-643.152"/>
<polygon fill="none" stroke="black" points="597.757,-639.804 589.034,-645.817 599.603,-646.556 597.757,-639.804"/>
</g>
<!-- \\Cloudflare\\Zone\\Dns -->
<g id="node4" class="node"><title>\\Cloudflare\\Zone\\Dns</title>
<polygon fill="none" stroke="black" points="888.771,-536 834.771,-536 834.771,-500 888.771,-500 888.771,-536"/>
<text text-anchor="middle" x="861.771" y="-514.7" font-family="Courier,monospace" font-size="11.00">Dns</text>
</g>
<!-- \\Cloudflare\\Zone\\Dns&#45;&gt;\\Cloudflare\\Zone -->
<g id="edge4" class="edge"><title>\\Cloudflare\\Zone\\Dns&#45;&gt;\\Cloudflare\\Zone</title>
<path fill="none" stroke="black" d="M834.75,-523.257C814.246,-527.818 785.153,-535.226 760.79,-545 701.069,-568.96 636.429,-606.66 597.792,-630.588"/>
<polygon fill="none" stroke="black" points="595.648,-627.8 589.016,-636.063 599.353,-633.739 595.648,-627.8"/>
</g>
<!-- \\Cloudflare\\Zone\\Plan -->
<g id="node5" class="node"><title>\\Cloudflare\\Zone\\Plan</title>
<polygon fill="none" stroke="black" points="888.771,-482 834.771,-482 834.771,-446 888.771,-446 888.771,-482"/>
<text text-anchor="middle" x="861.771" y="-460.7" font-family="Courier,monospace" font-size="11.00">Plan</text>
</g>
<!-- \\Cloudflare\\Zone\\Plan&#45;&gt;\\Cloudflare\\Zone -->
<g id="edge6" class="edge"><title>\\Cloudflare\\Zone\\Plan&#45;&gt;\\Cloudflare\\Zone</title>
<path fill="none" stroke="black" d="M834.614,-467.946C813.774,-471.81 784.297,-478.919 760.79,-491 690.274,-527.24 621.824,-591.703 586.842,-627.412"/>
<polygon fill="none" stroke="black" points="583.938,-625.379 579.493,-634.996 588.965,-630.251 583.938,-625.379"/>
</g>
<!-- \\Cloudflare\\Zone\\Packages -->
<g id="node6" class="node"><title>\\Cloudflare\\Zone\\Packages</title>
<polygon fill="none" stroke="black" points="896.08,-374 827.462,-374 827.462,-338 896.08,-338 896.08,-374"/>
<text text-anchor="middle" x="861.771" y="-352.7" font-family="Courier,monospace" font-size="11.00">Packages</text>
</g>
<!-- \\Cloudflare\\Zone\\WAF -->
<g id="node32" class="node"><title>\\Cloudflare\\Zone\\WAF</title>
<ellipse fill="none" stroke="black" cx="561.775" cy="-126" rx="91.8085" ry="18"/>
<text text-anchor="middle" x="561.775" y="-121.8" font-family="Times,serif" font-size="14.00" fill="gray">\Cloudflare\Zone\WAF</text>
</g>
<!-- \\Cloudflare\\Zone\\Packages&#45;&gt;\\Cloudflare\\Zone\\WAF -->
<g id="edge10" class="edge"><title>\\Cloudflare\\Zone\\Packages&#45;&gt;\\Cloudflare\\Zone\\WAF</title>
<path fill="none" stroke="black" d="M827.198,-354.229C805.971,-351.492 779.173,-344.85 760.79,-329 700.193,-276.752 748.619,-217.125 688.79,-164 676.55,-153.132 661.293,-145.371 645.667,-139.828"/>
<polygon fill="none" stroke="black" points="646.505,-136.421 635.913,-136.656 644.34,-143.077 646.505,-136.421"/>
</g>
<!-- \\Cloudflare\\Zone\\SSL -->
<g id="node7" class="node"><title>\\Cloudflare\\Zone\\SSL</title>
<polygon fill="none" stroke="black" points="888.771,-428 834.771,-428 834.771,-392 888.771,-392 888.771,-428"/>
<text text-anchor="middle" x="861.771" y="-406.7" font-family="Courier,monospace" font-size="11.00">SSL</text>
</g>
<!-- \\Cloudflare\\Zone\\SSL&#45;&gt;\\Cloudflare\\Zone -->
<g id="edge11" class="edge"><title>\\Cloudflare\\Zone\\SSL&#45;&gt;\\Cloudflare\\Zone</title>
<path fill="none" stroke="black" d="M834.542,-412.98C813.391,-416.312 783.527,-423.176 760.79,-437 678.878,-486.803 610.266,-580.321 579.755,-626.213"/>
<polygon fill="none" stroke="black" points="576.727,-624.449 574.169,-634.73 582.58,-628.288 576.727,-624.449"/>
</g>
<!-- \\Cloudflare\\Zone\\Groups -->
<g id="node8" class="node"><title>\\Cloudflare\\Zone\\Groups</title>
<polygon fill="none" stroke="black" points="889.379,-320 834.163,-320 834.163,-284 889.379,-284 889.379,-320"/>
<text text-anchor="middle" x="861.771" y="-298.7" font-family="Courier,monospace" font-size="11.00">Groups</text>
</g>
<!-- \\Cloudflare\\Zone\\WAF\\Packages -->
<g id="node33" class="node"><title>\\Cloudflare\\Zone\\WAF\\Packages</title>
<ellipse fill="none" stroke="black" cx="561.775" cy="-72" rx="127.03" ry="18"/>
<text text-anchor="middle" x="561.775" y="-67.8" font-family="Times,serif" font-size="14.00" fill="gray">\Cloudflare\Zone\WAF\Packages</text>
</g>
<!-- \\Cloudflare\\Zone\\Groups&#45;&gt;\\Cloudflare\\Zone\\WAF\\Packages -->
<g id="edge15" class="edge"><title>\\Cloudflare\\Zone\\Groups&#45;&gt;\\Cloudflare\\Zone\\WAF\\Packages</title>
<path fill="none" stroke="black" d="M833.942,-301.125C811.861,-299.049 781.01,-292.846 760.79,-275 697.425,-219.075 753.605,-153.237 688.79,-99 683.429,-94.5141 677.5,-90.721 671.221,-87.5183"/>
<polygon fill="none" stroke="black" points="672.349,-84.1865 661.796,-83.2367 669.453,-90.5596 672.349,-84.1865"/>
</g>
<!-- \\Cloudflare\\Zone\\Railgun -->
<g id="node9" class="node"><title>\\Cloudflare\\Zone\\Railgun</title>
<polygon fill="none" stroke="black" points="892.979,-914 830.563,-914 830.563,-878 892.979,-878 892.979,-914"/>
<text text-anchor="middle" x="861.771" y="-892.7" font-family="Courier,monospace" font-size="11.00">Railgun</text>
</g>
<!-- \\Cloudflare\\Zone\\Railgun&#45;&gt;\\Cloudflare\\Zone -->
<g id="edge16" class="edge"><title>\\Cloudflare\\Zone\\Railgun&#45;&gt;\\Cloudflare\\Zone</title>
<path fill="none" stroke="black" d="M830.214,-894.895C808.416,-892.56 779.725,-886.126 760.79,-869 694.125,-808.702 757.02,-738.52 688.79,-680 664.017,-658.753 626.563,-652.953 598.922,-651.894"/>
<polygon fill="none" stroke="black" points="598.922,-648.394 588.855,-651.699 598.785,-655.393 598.922,-648.394"/>
</g>
<!-- \\Cloudflare\\Zone\\AccesRules -->
<g id="node10" class="node"><title>\\Cloudflare\\Zone\\AccesRules</title>
<polygon fill="none" stroke="black" points="902.782,-212 820.76,-212 820.76,-176 902.782,-176 902.782,-212"/>
<text text-anchor="middle" x="861.771" y="-190.7" font-family="Courier,monospace" font-size="11.00">AccesRules</text>
</g>
<!-- \\Cloudflare\\Zone\\Firewall -->
<g id="node35" class="node"><title>\\Cloudflare\\Zone\\Firewall</title>
<ellipse fill="none" stroke="black" cx="561.775" cy="-18" rx="102.407" ry="18"/>
<text text-anchor="middle" x="561.775" y="-13.8" font-family="Times,serif" font-size="14.00" fill="gray">\Cloudflare\Zone\Firewall</text>
</g>
<!-- \\Cloudflare\\Zone\\AccesRules&#45;&gt;\\Cloudflare\\Zone\\Firewall -->
<g id="edge18" class="edge"><title>\\Cloudflare\\Zone\\AccesRules&#45;&gt;\\Cloudflare\\Zone\\Firewall</title>
<path fill="none" stroke="black" d="M820.359,-183.491C800.884,-176.995 778.065,-167.141 760.79,-153 716.15,-116.458 736.502,-77.4273 688.79,-45 679.864,-38.9337 669.828,-34.1949 659.418,-30.4987"/>
<polygon fill="none" stroke="black" points="660.364,-27.1264 649.772,-27.3891 658.216,-33.7887 660.364,-27.1264"/>
</g>
<!-- \\Cloudflare\\Zone\\Rules -->
<g id="node11" class="node"><title>\\Cloudflare\\Zone\\Rules</title>
<polygon fill="none" stroke="black" points="888.771,-266 834.771,-266 834.771,-230 888.771,-230 888.771,-266"/>
<text text-anchor="middle" x="861.771" y="-244.7" font-family="Courier,monospace" font-size="11.00">Rules</text>
</g>
<!-- \\Cloudflare\\Zone\\Rules&#45;&gt;\\Cloudflare\\Zone\\WAF\\Packages -->
<g id="edge24" class="edge"><title>\\Cloudflare\\Zone\\Rules&#45;&gt;\\Cloudflare\\Zone\\WAF\\Packages</title>
<path fill="none" stroke="black" d="M834.579,-246.349C812.886,-243.798 782.248,-237.337 760.79,-221 710.695,-182.862 739.872,-135.805 688.79,-99 682.472,-94.4478 675.542,-90.6343 668.285,-87.4428"/>
<polygon fill="none" stroke="black" points="669.523,-84.1686 658.937,-83.7241 666.935,-90.6728 669.523,-84.1686"/>
</g>
<!-- \\Cloudflare\\Zone\\CustomSSL -->
<g id="node12" class="node"><title>\\Cloudflare\\Zone\\CustomSSL</title>
<polygon fill="none" stroke="black" points="899.682,-860 823.86,-860 823.86,-824 899.682,-824 899.682,-860"/>
<text text-anchor="middle" x="861.771" y="-838.7" font-family="Courier,monospace" font-size="11.00">CustomSSL</text>
</g>
<!-- \\Cloudflare\\Zone\\CustomSSL&#45;&gt;\\Cloudflare\\Zone -->
<g id="edge26" class="edge"><title>\\Cloudflare\\Zone\\CustomSSL&#45;&gt;\\Cloudflare\\Zone</title>
<path fill="none" stroke="black" d="M823.804,-839.175C803.401,-835.977 778.655,-829.221 760.79,-815 707.587,-772.651 743.09,-720.933 688.79,-680 663.002,-660.56 626.233,-654.458 599.065,-652.834"/>
<polygon fill="none" stroke="black" points="598.939,-649.325 588.801,-652.403 598.645,-656.319 598.939,-649.325"/>
</g>
<!-- \\Cloudflare\\Zone\\KeylessSSL -->
<g id="node13" class="node"><title>\\Cloudflare\\Zone\\KeylessSSL</title>
<polygon fill="none" stroke="black" points="902.782,-806 820.76,-806 820.76,-770 902.782,-770 902.782,-806"/>
<text text-anchor="middle" x="861.771" y="-784.7" font-family="Courier,monospace" font-size="11.00">KeylessSSL</text>
</g>
<!-- \\Cloudflare\\Zone\\KeylessSSL&#45;&gt;\\Cloudflare\\Zone -->
<g id="edge27" class="edge"><title>\\Cloudflare\\Zone\\KeylessSSL&#45;&gt;\\Cloudflare\\Zone</title>
<path fill="none" stroke="black" d="M820.663,-782.651C801.485,-778.769 778.833,-772.161 760.79,-761 719.827,-735.662 730.406,-704.25 688.79,-680 661.313,-663.989 625.502,-657.434 599.082,-654.77"/>
<polygon fill="none" stroke="black" points="599.363,-651.282 589.098,-653.902 598.757,-658.255 599.363,-651.282"/>
</g>
<!-- \\Cloudflare\\Zone\\Settings -->
<g id="node14" class="node"><title>\\Cloudflare\\Zone\\Settings</title>
<polygon fill="none" stroke="black" points="896.08,-752 827.462,-752 827.462,-716 896.08,-716 896.08,-752"/>
<text text-anchor="middle" x="861.771" y="-730.7" font-family="Courier,monospace" font-size="11.00">Settings</text>
</g>
<!-- \\Cloudflare\\Zone\\Settings&#45;&gt;\\Cloudflare\\Zone -->
<g id="edge28" class="edge"><title>\\Cloudflare\\Zone\\Settings&#45;&gt;\\Cloudflare\\Zone</title>
<path fill="none" stroke="black" d="M827.211,-725.786C807.693,-720.798 782.698,-714.048 760.79,-707 728.256,-696.533 721.588,-689.606 688.79,-680 658.972,-671.267 624.423,-664.063 599.05,-659.3"/>
<polygon fill="none" stroke="black" points="599.59,-655.841 589.122,-657.472 598.323,-662.725 599.59,-655.841"/>
</g>
<!-- \\Cloudflare\\User\\Billing\\Subscriptions\\Zones -->
<g id="node15" class="node"><title>\\Cloudflare\\User\\Billing\\Subscriptions\\Zones</title>
<polygon fill="none" stroke="black" points="1131.66,-1215 1077.66,-1215 1077.66,-1179 1131.66,-1179 1131.66,-1215"/>
<text text-anchor="middle" x="1104.66" y="-1193.7" font-family="Courier,monospace" font-size="11.00">Zones</text>
</g>
<!-- \\Cloudflare\\User\\Billing -->
<g id="node18" class="node"><title>\\Cloudflare\\User\\Billing</title>
<polygon fill="none" stroke="black" points="892.979,-1161 830.563,-1161 830.563,-1125 892.979,-1125 892.979,-1161"/>
<text text-anchor="middle" x="861.771" y="-1139.7" font-family="Courier,monospace" font-size="11.00">Billing</text>
</g>
<!-- \\Cloudflare\\User\\Billing\\Subscriptions\\Zones&#45;&gt;\\Cloudflare\\User\\Billing -->
<g id="edge13" class="edge"><title>\\Cloudflare\\User\\Billing\\Subscriptions\\Zones&#45;&gt;\\Cloudflare\\User\\Billing</title>
<path fill="none" stroke="black" d="M1077.42,-1191.12C1035.41,-1181.7 952.759,-1163.17 903.173,-1152.06"/>
<polygon fill="none" stroke="black" points="903.644,-1148.58 893.12,-1149.8 902.113,-1155.41 903.644,-1148.58"/>
</g>
<!-- \\Cloudflare\\User\\Billing\\Subscriptions\\Apps -->
<g id="node16" class="node"><title>\\Cloudflare\\User\\Billing\\Subscriptions\\Apps</title>
<polygon fill="none" stroke="black" points="1131.66,-1161 1077.66,-1161 1077.66,-1125 1131.66,-1125 1131.66,-1161"/>
<text text-anchor="middle" x="1104.66" y="-1139.7" font-family="Courier,monospace" font-size="11.00">Apps</text>
</g>
<!-- \\Cloudflare\\User\\Billing\\Subscriptions\\Apps&#45;&gt;\\Cloudflare\\User\\Billing -->
<g id="edge23" class="edge"><title>\\Cloudflare\\User\\Billing\\Subscriptions\\Apps&#45;&gt;\\Cloudflare\\User\\Billing</title>
<path fill="none" stroke="black" d="M1077.42,-1143C1035.41,-1143 952.759,-1143 903.173,-1143"/>
<polygon fill="none" stroke="black" points="903.121,-1139.5 893.12,-1143 903.12,-1146.5 903.121,-1139.5"/>
</g>
<!-- \\Cloudflare\\User\\Invites -->
<g id="node17" class="node"><title>\\Cloudflare\\User\\Invites</title>
<polygon fill="none" stroke="black" points="1135.87,-1047 1073.45,-1047 1073.45,-1011 1135.87,-1011 1135.87,-1047"/>
<text text-anchor="middle" x="1104.66" y="-1025.7" font-family="Courier,monospace" font-size="11.00">Invites</text>
</g>
<!-- \\Cloudflare\\User -->
<g id="node27" class="node"><title>\\Cloudflare\\User</title>
<polygon fill="none" stroke="black" points="588.775,-1101 534.775,-1101 534.775,-1065 588.775,-1065 588.775,-1101"/>
<text text-anchor="middle" x="561.775" y="-1079.7" font-family="Courier,monospace" font-size="11.00">User</text>
</g>
<!-- \\Cloudflare\\User\\Invites&#45;&gt;\\Cloudflare\\User -->
<g id="edge5" class="edge"><title>\\Cloudflare\\User\\Invites&#45;&gt;\\Cloudflare\\User</title>
<path fill="none" stroke="black" d="M860.771,-1083C766.626,-1088.22 655.493,-1086.01 599.277,-1084.3"/>
<polygon fill="none" stroke="black" points="599.217,-1080.8 589.111,-1083.98 598.996,-1087.79 599.217,-1080.8"/>
<path fill="none" stroke="black" d="M1073.32,-1039.2C1028.09,-1053.63 940.013,-1078.72 862.771,-1083"/>
</g>
<!-- \\Cloudflare\\User\\Billing&#45;&gt;\\Cloudflare\\User -->
<g id="edge8" class="edge"><title>\\Cloudflare\\User\\Billing&#45;&gt;\\Cloudflare\\User</title>
<path fill="none" stroke="black" d="M830.558,-1136.92C775.421,-1125.82 658.702,-1102.31 599.243,-1090.34"/>
<polygon fill="none" stroke="black" points="599.672,-1086.86 589.178,-1088.32 598.29,-1093.72 599.672,-1086.86"/>
</g>
<!-- \\Cloudflare\\User\\AccesRules -->
<g id="node19" class="node"><title>\\Cloudflare\\User\\AccesRules</title>
<polygon fill="none" stroke="black" points="1145.67,-993 1063.65,-993 1063.65,-957 1145.67,-957 1145.67,-993"/>
<text text-anchor="middle" x="1104.66" y="-971.7" font-family="Courier,monospace" font-size="11.00">AccesRules</text>
</g>
<!-- \\Cloudflare\\User\\Firewall -->
<g id="node34" class="node"><title>\\Cloudflare\\User\\Firewall</title>
<ellipse fill="none" stroke="black" cx="861.771" cy="-126" rx="100.962" ry="18"/>
<text text-anchor="middle" x="861.771" y="-121.8" font-family="Times,serif" font-size="14.00" fill="gray">\Cloudflare\User\Firewall</text>
</g>
<!-- \\Cloudflare\\User\\AccesRules&#45;&gt;\\Cloudflare\\User\\Firewall -->
<g id="edge17" class="edge"><title>\\Cloudflare\\User\\AccesRules&#45;&gt;\\Cloudflare\\User\\Firewall</title>
<path fill="none" stroke="black" d="M1102.9,-956.95C1098,-849.203 1067.79,-291.321 962.752,-164 955.831,-155.611 946.843,-149.071 937.097,-143.974"/>
<polygon fill="none" stroke="black" points="938.509,-140.77 927.97,-139.686 935.533,-147.106 938.509,-140.77"/>
</g>
<!-- \\Cloudflare\\User\\Organizations -->
<g id="node20" class="node"><title>\\Cloudflare\\User\\Organizations</title>
<polygon fill="none" stroke="black" points="1155.47,-1101 1053.85,-1101 1053.85,-1065 1155.47,-1065 1155.47,-1101"/>
<text text-anchor="middle" x="1104.66" y="-1079.7" font-family="Courier,monospace" font-size="11.00">Organizations</text>
</g>
<!-- \\Cloudflare\\User\\Organizations&#45;&gt;\\Cloudflare\\User -->
<g id="edge22" class="edge"><title>\\Cloudflare\\User\\Organizations&#45;&gt;\\Cloudflare\\User</title>
<path fill="none" stroke="black" d="M1053.79,-1081.39C1005.04,-1080.2 928.747,-1079.34 862.771,-1083"/>
</g>
<!-- \\Cloudflare\\Organizations\\Members -->
<g id="node21" class="node"><title>\\Cloudflare\\Organizations\\Members</title>
<polygon fill="none" stroke="black" points="592.983,-320 530.567,-320 530.567,-284 592.983,-284 592.983,-320"/>
<text text-anchor="middle" x="561.775" y="-298.7" font-family="Courier,monospace" font-size="11.00">Members</text>
</g>
<!-- \\Cloudflare\\Organizations -->
<g id="node30" class="node"><title>\\Cloudflare\\Organizations</title>
<ellipse fill="none" stroke="black" cx="181.38" cy="-126" rx="101.612" ry="18"/>
<text text-anchor="middle" x="181.38" y="-121.8" font-family="Times,serif" font-size="14.00" fill="gray">\Cloudflare\Organizations</text>
</g>
<!-- \\Cloudflare\\Organizations\\Members&#45;&gt;\\Cloudflare\\Organizations -->
<g id="edge7" class="edge"><title>\\Cloudflare\\Organizations\\Members&#45;&gt;\\Cloudflare\\Organizations</title>
<path fill="none" stroke="black" d="M530.598,-302.103C503.245,-300.773 463.008,-295.118 434.76,-275 384.409,-239.139 413.927,-190.686 362.76,-156 342.32,-142.144 317.649,-133.939 293.205,-129.229"/>
<polygon fill="none" stroke="black" points="293.577,-125.741 283.125,-127.476 292.378,-132.638 293.577,-125.741"/>
</g>
<!-- \\Cloudflare\\Organizations\\Rules -->
<g id="node22" class="node"><title>\\Cloudflare\\Organizations\\Rules</title>
<polygon fill="none" stroke="black" points="588.775,-212 534.775,-212 534.775,-176 588.775,-176 588.775,-212"/>
<text text-anchor="middle" x="561.775" y="-190.7" font-family="Courier,monospace" font-size="11.00">Rules</text>
</g>
<!-- \\Cloudflare\\Organizations\\Firewall\\AccessRules -->
<g id="node31" class="node"><title>\\Cloudflare\\Organizations\\Firewall\\AccessRules</title>
<ellipse fill="none" stroke="black" cx="181.38" cy="-72" rx="181.26" ry="18"/>
<text text-anchor="middle" x="181.38" y="-67.8" font-family="Times,serif" font-size="14.00" fill="gray">\Cloudflare\Organizations\Firewall\AccessRules</text>
</g>
<!-- \\Cloudflare\\Organizations\\Rules&#45;&gt;\\Cloudflare\\Organizations\\Firewall\\AccessRules -->
<g id="edge9" class="edge"><title>\\Cloudflare\\Organizations\\Rules&#45;&gt;\\Cloudflare\\Organizations\\Firewall\\AccessRules</title>
<path fill="none" stroke="black" d="M534.684,-188.185C508.485,-181.741 467.427,-169.967 434.76,-153 399.262,-134.563 399.664,-114.431 362.76,-99 350.887,-94.0356 338.238,-89.967 325.358,-86.6348"/>
<polygon fill="none" stroke="black" points="326.017,-83.1931 315.473,-84.2276 324.361,-89.9944 326.017,-83.1931"/>
</g>
<!-- \\Cloudflare\\Organizations\\Invites -->
<g id="node23" class="node"><title>\\Cloudflare\\Organizations\\Invites</title>
<polygon fill="none" stroke="black" points="592.983,-266 530.567,-266 530.567,-230 592.983,-230 592.983,-266"/>
<text text-anchor="middle" x="561.775" y="-244.7" font-family="Courier,monospace" font-size="11.00">Invites</text>
</g>
<!-- \\Cloudflare\\Organizations\\Invites&#45;&gt;\\Cloudflare\\Organizations -->
<g id="edge14" class="edge"><title>\\Cloudflare\\Organizations\\Invites&#45;&gt;\\Cloudflare\\Organizations</title>
<path fill="none" stroke="black" d="M530.533,-245.947C504.042,-243.143 465.139,-236.535 434.76,-221 396.376,-201.372 401.587,-174.735 362.76,-156 339.791,-144.917 313.474,-137.835 288.173,-133.335"/>
<polygon fill="none" stroke="black" points="288.598,-129.858 278.161,-131.676 287.454,-136.764 288.598,-129.858"/>
</g>
<!-- \\Cloudflare\\Organizations\\Roles -->
<g id="node24" class="node"><title>\\Cloudflare\\Organizations\\Roles</title>
<polygon fill="none" stroke="black" points="588.775,-374 534.775,-374 534.775,-338 588.775,-338 588.775,-374"/>
<text text-anchor="middle" x="561.775" y="-352.7" font-family="Courier,monospace" font-size="11.00">Roles</text>
</g>
<!-- \\Cloudflare\\Organizations\\Roles&#45;&gt;\\Cloudflare\\Organizations -->
<g id="edge20" class="edge"><title>\\Cloudflare\\Organizations\\Roles&#45;&gt;\\Cloudflare\\Organizations</title>
<path fill="none" stroke="black" d="M534.579,-357.136C506.754,-356.945 462.972,-352.463 434.76,-329 370.728,-275.748 428.006,-207.757 362.76,-156 342.999,-140.325 318.129,-131.49 293.225,-126.759"/>
<polygon fill="none" stroke="black" points="293.76,-123.3 283.317,-125.086 292.594,-130.202 293.76,-123.3"/>
</g>
<!-- \\Cloudflare\\Organizations\\Organizations -->
<g id="node25" class="node"><title>\\Cloudflare\\Organizations\\Organizations</title>
<polygon fill="none" stroke="black" points="612.589,-428 510.961,-428 510.961,-392 612.589,-392 612.589,-428"/>
<text text-anchor="middle" x="561.775" y="-406.7" font-family="Courier,monospace" font-size="11.00">Organizations</text>
</g>
<!-- \\Cloudflare\\Api -->
<g id="node26" class="node"><title>\\Cloudflare\\Api</title>
<polygon fill="none" stroke="black" points="208.38,-698 154.38,-698 154.38,-662 208.38,-662 208.38,-698"/>
<text text-anchor="middle" x="181.38" y="-676.7" font-family="Courier,monospace" font-size="11.00">Api</text>
</g>
<!-- \\Cloudflare\\Organizations\\Organizations&#45;&gt;\\Cloudflare\\Api -->
<g id="edge21" class="edge"><title>\\Cloudflare\\Organizations\\Organizations&#45;&gt;\\Cloudflare\\Api</title>
<path fill="none" stroke="black" d="M510.718,-411.844C486.662,-414.411 458.068,-420.021 434.76,-432 328.364,-486.682 237.799,-601.674 200.544,-653.582"/>
<polygon fill="none" stroke="black" points="197.551,-651.752 194.621,-661.934 203.261,-655.802 197.551,-651.752"/>
</g>
<!-- \\Cloudflare\\User&#45;&gt;\\Cloudflare\\Api -->
<g id="edge12" class="edge"><title>\\Cloudflare\\User&#45;&gt;\\Cloudflare\\Api</title>
<path fill="none" stroke="black" d="M543.781,-1064.9C483.147,-1000.32 277.288,-781.079 206.512,-705.701"/>
<polygon fill="none" stroke="black" points="208.724,-702.943 199.327,-698.049 203.621,-707.735 208.724,-702.943"/>
</g>
<!-- \\Cloudflare\\Railguns -->
<g id="node28" class="node"><title>\\Cloudflare\\Railguns</title>
<polygon fill="none" stroke="black" points="596.084,-725 527.466,-725 527.466,-689 596.084,-689 596.084,-725"/>
<text text-anchor="middle" x="561.775" y="-703.7" font-family="Courier,monospace" font-size="11.00">Railguns</text>
</g>
<!-- \\Cloudflare\\Railguns&#45;&gt;\\Cloudflare\\Api -->
<g id="edge19" class="edge"><title>\\Cloudflare\\Railguns&#45;&gt;\\Cloudflare\\Api</title>
<path fill="none" stroke="black" d="M527.195,-704.604C456.34,-699.548 292.058,-687.826 218.789,-682.598"/>
<polygon fill="none" stroke="black" points="218.885,-679.096 208.662,-681.875 218.387,-686.078 218.885,-679.096"/>
</g>
<!-- \\Cloudflare\\Zone&#45;&gt;\\Cloudflare\\Api -->
<g id="edge25" class="edge"><title>\\Cloudflare\\Zone&#45;&gt;\\Cloudflare\\Api</title>
<path fill="none" stroke="black" d="M534.766,-654.856C468.745,-659.567 294.532,-671.997 218.61,-677.415"/>
<polygon fill="none" stroke="black" points="218.296,-673.928 208.571,-678.131 218.794,-680.91 218.296,-673.928"/>
</g>
</g>
</svg>
